<?xml version="1.0" encoding="utf-8"?>
<!-- Generator: Adobe Illustrator 22.0.1, SVG Export Plug-In . SVG Version: 6.00 Build 0)  -->
<svg version="1.1" id="Layer_1" xmlns="http://www.w3.org/2000/svg" xmlns:xlink="http://www.w3.org/1999/xlink" x="0px" y="0px"
	 viewBox="0 0 35 35" style="enable-background:new 0 0 35 35;" xml:space="preserve">
<style type="text/css">
	.st0{clip-path:url(#SVGID_2_);}
	.st1{stroke:#000000;stroke-width:0.75;}
</style>
<g>
	<path d="M9.7,27.1v-6.4c0.3,0,0.7,0.1,1.2,0.1c2.7,0,4.8-0.7,6.3-2c1.2-1.1,1.8-2.7,1.8-4.6c0-1.8-0.8-3.5-2.1-4.5
		C15.6,8.5,13.6,8,11,8C8.7,8,6.7,8.1,5.2,8.4C5.1,8.4,5,8.5,5,8.6v18.5c0,0.1,0.1,0.3,0.3,0.3h4.2C9.6,27.4,9.7,27.3,9.7,27.1
		L9.7,27.1z M9.7,16.9v-5.1c0.3,0,0.7-0.1,1.5-0.1c1.9,0,3,0.9,3,2.5c0,1.8-1.3,2.8-3.4,2.8C10.4,17,10,17,9.7,16.9L9.7,16.9z
		 M9.7,16.9"/>
	<path d="M26.6,18.6c-1.7-0.6-2-0.9-2-1.3c0-0.7,0.8-0.9,1.4-0.9c1.1,0,2.2,0.4,2.8,0.7c0.1,0,0.2,0,0.2,0c0.1,0,0.1-0.1,0.1-0.2
		l0.7-2.9c0-0.1,0-0.2-0.1-0.3c-0.8-0.4-2.2-0.8-4-0.8c-3.4,0-5.8,1.9-5.8,4.7c0,1.3,0.7,3.2,4,4.3c1.6,0.5,1.8,0.8,1.8,1.3
		c0,0.2,0,0.9-1.5,0.9c-1.2,0-2.7-0.5-3.5-1c-0.1,0-0.2,0-0.2,0c-0.1,0-0.1,0.1-0.2,0.2l-0.7,3c0,0.1,0,0.2,0.1,0.3
		c1.1,0.6,2.8,1,4.5,1c3.8,0,6.1-1.8,6.1-4.7C30.4,20.8,29.2,19.5,26.6,18.6L26.6,18.6z M26.6,18.6"/>
</g>
</svg>
