<?xml version="1.0" encoding="utf-8"?>
<!-- Generator: Adobe Illustrator 22.0.1, SVG Export Plug-In . SVG Version: 6.00 Build 0)  -->
<svg version="1.1" id="Layer_1" xmlns="http://www.w3.org/2000/svg" xmlns:xlink="http://www.w3.org/1999/xlink" x="0px" y="0px"
	 viewBox="0 0 35 35" style="enable-background:new 0 0 35 35;" xml:space="preserve">
<style type="text/css">
	.st0{clip-path:url(#SVGID_2_);}
	.st1{stroke:#000000;stroke-width:0.75;}
</style>
<g>
	<path class="st1" d="M18.4,27.4c-1.1,0-2.1,0-3.1,0c-0.2,0-0.5-0.3-0.6-0.6c-0.5-1.3-0.9-2.6-1.3-3.9c-0.1-0.5-0.4-0.7-0.9-0.7
		c-1.5,0-3,0-4.4,0c-0.6,0-0.8,0.2-0.9,0.7c-0.4,1.3-0.8,2.6-1.2,3.9c-0.1,0.5-0.4,0.7-0.9,0.6c-0.9,0-1.8,0-2.7,0
		c0.1-0.3,0.1-0.5,0.1-0.7c1.8-5.6,3.6-11.3,5.4-16.9C8.1,9.2,8.4,9,9.1,9C10,9.1,11,9,11.9,9c0.4,0,0.7,0.1,0.8,0.5
		c1.9,5.8,3.8,11.6,5.7,17.4C18.4,27.1,18.4,27.2,18.4,27.4z M12.6,19.6c-0.8-2.6-1.5-5.1-2.3-7.7C9.5,14.5,8.7,17,8,19.6
		C9.5,19.6,11,19.6,12.6,19.6z"/>
	<path class="st1" d="M31.1,27.4c-0.9,0-1.7,0-2.5,0c-0.1,0-0.3-0.3-0.4-0.5C28,26.5,28,26.1,28,25.5c-0.2,0.3-0.4,0.4-0.5,0.6
		c-1.4,1.5-3.2,1.9-5.1,1.4c-1.8-0.5-2.7-1.8-3-3.6c-0.1-0.5-0.2-1-0.2-1.5c0-2.5,0-5,0-7.6c0-0.5,0.2-0.7,0.7-0.7
		c0.6,0,1.3,0,1.9,0c0.6,0,0.8,0.2,0.8,0.8c0,2.1,0,4.2,0,6.3c0,0.5,0,1.1,0.1,1.6c0.3,1.4,1,2.1,2.2,2.1c1.2,0.1,2.4-0.8,2.7-2
		c0.1-0.4,0.1-0.8,0.1-1.2c0-2.3,0-4.5,0-6.8c0-0.3,0-0.6,0-1c1.1,0,2,0,3,0c0.1,0,0.3,0.4,0.3,0.6c0,1.4,0,2.8,0,4.1
		c0,2.5,0,5.1,0.1,7.6C31.1,26.8,31.1,27.1,31.1,27.4z"/>
</g>
</svg>
