<?xml version="1.0" encoding="utf-8"?>
<!-- Generator: Adobe Illustrator 22.0.1, SVG Export Plug-In . SVG Version: 6.00 Build 0)  -->
<svg version="1.1" id="Layer_1" xmlns="http://www.w3.org/2000/svg" xmlns:xlink="http://www.w3.org/1999/xlink" x="0px" y="0px"
	 viewBox="0 0 35 35" style="enable-background:new 0 0 35 35;" xml:space="preserve">
<style type="text/css">
	.st0{clip-path:url(#SVGID_2_);}
	.st1{stroke:#000000;stroke-width:0.75;}
</style>
<g>
	<g>
		<defs>
			<rect id="SVGID_1_" x="4.5" y="7.7" width="24" height="20"/>
		</defs>
		<clipPath id="SVGID_2_">
			<use xlink:href="#SVGID_1_"  style="overflow:visible;"/>
		</clipPath>
		<path class="st0" d="M4.8,27.6h4.3c0.1,0,0.2-0.1,0.2-0.2l1.3-4.6h4.9l1.4,4.6c0,0.1,0.1,0.2,0.2,0.2h4.5c0.1,0,0.3-0.1,0.3-0.3
			c0,0,0-0.1,0-0.1L16.2,8.7c0-0.1-0.1-0.2-0.2-0.2h-5.5c-0.1,0-0.2,0.1-0.2,0.2L4.5,27.3c0,0.1,0,0.2,0,0.2
			C4.6,27.6,4.7,27.6,4.8,27.6L4.8,27.6z M14.8,19.2h-3.4l1-3.6c0.2-0.6,0.4-1.4,0.5-2.2c0-0.2,0.1-0.3,0.1-0.5
			c0.2,0.9,0.5,1.9,0.7,2.7L14.8,19.2z M14.8,19.2"/>
	</g>
	<path d="M23.8,13.6c-0.1,0-0.3,0.1-0.3,0.3v13.4c0,0.1,0.1,0.3,0.3,0.3H28c0.1,0,0.3-0.1,0.3-0.3V13.9c0-0.1-0.1-0.3-0.3-0.3H23.8z
		 M23.8,13.6"/>
	<path d="M25.9,12.5c1.5,0,2.5-1,2.5-2.4c0-1.4-1.1-2.4-2.5-2.4c-0.7,0-1.4,0.3-1.8,0.7c-0.4,0.4-0.6,1-0.6,1.7
		c0,0.6,0.2,1.2,0.6,1.6C24.5,12.2,25.2,12.5,25.9,12.5L25.9,12.5z M25.9,12.5"/>
</g>
</svg>
