<?xml version="1.0" encoding="utf-8"?>
<!-- Generator: Adobe Illustrator 22.0.1, SVG Export Plug-In . SVG Version: 6.00 Build 0)  -->
<svg version="1.1" id="Layer_1" xmlns="http://www.w3.org/2000/svg" xmlns:xlink="http://www.w3.org/1999/xlink" x="0px" y="0px"
	 viewBox="0 0 35 35" style="enable-background:new 0 0 35 35;" xml:space="preserve">
<style type="text/css">
	.st0{clip-path:url(#SVGID_2_);}
	.st1{stroke:#000000;stroke-width:0.75;}
</style>
<g>
	<path d="M8.9,28c-2.8-3.5-5.6-6.8-8.4-10.3C3.3,14.4,6.1,11,8.9,7.5c0.7,1.1,1.3,2.1,2,3.2c-1.9,2.3-3.7,4.6-5.7,7
		c0.2,0.2,0.3,0.4,0.5,0.6c1.6,2,3.2,4,4.8,5.9c0.3,0.4,0.3,0.6,0.1,1C10,26.2,9.5,27.1,8.9,28z"/>
	<path d="M26.3,7.5c2.9,3.5,5.6,6.8,8.4,10.3c-2.8,3.4-5.6,6.8-8.4,10.3c-0.6-1.1-1.3-2-1.8-3c-0.1-0.2,0.1-0.6,0.3-0.8
		c1.7-2.1,3.4-4.2,5.2-6.4c-0.2-0.2-0.3-0.4-0.5-0.6c-1.6-2-3.2-4-4.8-5.9c-0.3-0.4-0.4-0.6-0.1-1C25.1,9.4,25.7,8.5,26.3,7.5z"/>
	<path d="M23.8,7.7c-0.4,1.5-0.8,2.9-1.2,4.2c-1.5,5-3,10.1-4.4,15.1c-0.2,0.6-0.5,0.8-1.1,0.8c-0.9-0.1-1.8,0-2.8,0
		c0.4-1.3,0.7-2.4,1-3.6c1.5-5.3,3.1-10.5,4.6-15.8c0.2-0.6,0.5-0.8,1.1-0.8C21.9,7.7,22.8,7.7,23.8,7.7z"/>
</g>
</svg>
