<?xml version="1.0" encoding="utf-8"?>
<!-- Generator: Adobe Illustrator 22.0.1, SVG Export Plug-In . SVG Version: 6.00 Build 0)  -->
<svg version="1.1" id="Layer_1" xmlns="http://www.w3.org/2000/svg" xmlns:xlink="http://www.w3.org/1999/xlink" x="0px" y="0px"
	 viewBox="0 0 35 35" style="enable-background:new 0 0 35 35;" xml:space="preserve">
<style type="text/css">
	.st0{clip-path:url(#SVGID_2_);}
	.st1{stroke:#000000;stroke-width:0.75;}
</style>
<g>
	<path d="M7,27.1h4c0.1,0,0.2-0.1,0.2-0.2V9.2c0-0.1-0.1-0.2-0.2-0.2H7c-0.1,0-0.2,0.1-0.2,0.2v17.7C6.8,27,6.9,27.1,7,27.1L7,27.1z
		 M7,27.1"/>
	<path d="M19,27.4c1.6,0,3-0.7,3.9-1.8l0.1,1.3c0,0.1,0.1,0.2,0.2,0.2h3.5c0.1,0,0.2-0.1,0.2-0.2c0,0,0,0,0,0C27,26,27,24.5,27,23.1
		V8.2C27,8.1,26.9,8,26.7,8h-4c-0.1,0-0.2,0.1-0.2,0.2v6.3c-0.7-0.7-1.8-1.1-3.2-1.1c-1.5,0-3,0.6-4,1.7c-1.3,1.3-2,3.2-2,5.4
		C13.3,24.6,15.7,27.4,19,27.4L19,27.4z M20.3,23.8c-1.5,0-2.5-1.3-2.5-3.3c0-1.6,0.7-3.4,2.5-3.4c1.2,0,1.9,0.9,2.1,1.8
		c0,0.2,0,0.5,0,0.7v1.7c0,0.4,0,0.6-0.1,0.9c0,0,0,0,0,0C22.2,23.1,21.4,23.8,20.3,23.8L20.3,23.8z M20.3,23.8"/>
</g>
</svg>
