<?xml version="1.0" encoding="utf-8"?>
<!-- Generator: Adobe Illustrator 22.0.1, SVG Export Plug-In . SVG Version: 6.00 Build 0)  -->
<svg version="1.1" id="Layer_1" xmlns="http://www.w3.org/2000/svg" xmlns:xlink="http://www.w3.org/1999/xlink" x="0px" y="0px"
	 viewBox="0 0 35 35" style="enable-background:new 0 0 35 35;" xml:space="preserve">
<style type="text/css">
	.st0{clip-path:url(#SVGID_2_);}
	.st1{stroke:#000000;stroke-width:0.75;}
</style>
<g>
	<path class="st1" d="M26.7,15.8c-0.3-0.1-0.6-0.2-1.1-0.2c-2.3,0-3.8,1.8-3.8,4.7c0,3.3,1.6,4.7,3.6,4.7c0.4,0,0.9-0.1,1.2-0.2
		L26.7,15.8L26.7,15.8z M18.6,20.4c0-4.2,2.7-7.5,7.2-7.5c0.4,0,0.6,0,0.9,0V8.2c0-0.1,0.1-0.2,0.2-0.2h2.9c0.1,0,0.2,0.1,0.2,0.1
		v16.6c0,0.5,0,1.1,0.1,1.8c0,0.1,0,0.1-0.1,0.2c-1.5,0.7-3.1,1.1-4.6,1.1C21.4,27.8,18.6,25.4,18.6,20.4L18.6,20.4z M12.4,17.5
		l5.1,9.8c0.1,0.1,0,0.3-0.1,0.3h-3.2c-0.2,0-0.3-0.1-0.4-0.2c-1.2-2.4-2.3-4.9-3.5-7.4h0C9.2,22.4,8,25,6.8,27.4
		c-0.1,0.1-0.2,0.2-0.3,0.2h-3c-0.2,0-0.2-0.1-0.1-0.3l5-9.5L3.5,8.3C3.4,8.2,3.5,8,3.7,8h3.1c0.2,0,0.3,0,0.3,0.2
		c1.1,2.4,2.3,4.8,3.4,7.2h0c1.1-2.4,2.2-4.8,3.3-7.2C13.9,8.1,14,8,14.2,8h2.9c0.1,0,0.2,0.1,0.1,0.3L12.4,17.5L12.4,17.5z"/>
</g>
</svg>
