<?xml version="1.0" encoding="utf-8"?>
<!-- Generator: Adobe Illustrator 22.0.1, SVG Export Plug-In . SVG Version: 6.00 Build 0)  -->
<svg version="1.1" id="Layer_1" xmlns="http://www.w3.org/2000/svg" xmlns:xlink="http://www.w3.org/1999/xlink" x="0px" y="0px"
	 viewBox="0 0 39 39" style="enable-background:new 0 0 39 39;" xml:space="preserve">
<style type="text/css">
	.st0{fill:#FFFFFF;}
	.st1{fill:#707383;}
</style>
<g>
	<polygon class="st0" points="-25.5,-4.5 -24.1,-2.5 -22.4,-4.3 -21.3,-2.1 -19.4,-3.6 -18.7,-1.3 -16.6,-2.6 -16.1,-0.2
		-13.8,-1.2 -13.7,1.3 -11.4,0.6 -11.6,3.1 -9.2,2.8 -9.7,5.2 -7.3,5.2 -8.2,7.5 -5.7,7.9 -7,10 -4.6,10.7 -6.1,12.7 -3.8,13.7
		-5.6,15.4 -3.5,16.7 -5.5,18.2 -3.6,19.8 -5.8,21 -4.2,22.8 -6.5,23.7 -5.1,25.7 -7.5,26.3 -6.4,28.5 -8.9,28.7 -8.2,31
		-10.6,30.9 -10.2,33.3 -12.6,32.8 -12.6,35.3 -14.9,34.5 -15.2,36.9 -17.4,35.8 -18,38.2 -20,36.7 -20.9,39 -22.7,37.3 -24,39.4
		-25.5,37.5 -27,39.4 -28.3,37.3 -30.1,39 -31,36.7 -33,38.2 -33.6,35.8 -35.8,36.9 -36.1,34.5 -38.4,35.3 -38.4,32.8 -40.8,33.3
		-40.4,30.9 -42.8,31 -42.1,28.7 -44.6,28.5 -43.5,26.3 -45.9,25.7 -44.5,23.7 -46.8,22.8 -45.2,21 -47.4,19.8 -45.5,18.2
		-47.5,16.7 -45.4,15.4 -47.2,13.7 -44.9,12.7 -46.4,10.7 -44,10 -45.3,7.9 -42.8,7.5 -43.7,5.2 -41.3,5.2 -41.8,2.8 -39.4,3.1
		-39.6,0.6 -37.3,1.3 -37.2,-1.2 -34.9,-0.2 -34.4,-2.6 -32.3,-1.3 -31.6,-3.6 -29.7,-2.1 -28.6,-4.3 -26.9,-2.5 	"/>
</g>
<g>
	<path class="st1" d="M-15,18.2V26h-4.4v-7.2c0-1.8-0.6-3-2.2-3c-1.2,0-1.9,0.8-2.3,1.6c-0.1,0.3-0.1,0.7-0.1,1.1V26h-4.4
		c0,0,0.1-12.1,0-13.4h4.4v1.7c0,0,0,0,0,0h0v0c0.6-0.9,1.6-2.2,4-2.2C-17.2,12.1-15,14.1-15,18.2L-15,18.2z M-33.4,6
		c-1.5,0-2.5,1-2.5,2.3c0,1.3,1,2.3,2.5,2.3h0c1.6,0,2.5-1,2.5-2.3C-30.9,7-31.9,6-33.4,6L-33.4,6z M-35.7,26h4.4V12.7h-4.4V26z
		 M-35.7,26"/>
</g>
<g>
	<polygon class="st0" points="19.5,0 20.7,1.8 22.2,0.2 23.2,2.2 24.9,0.8 25.6,2.8 27.4,1.7 27.8,3.8 29.8,3 29.9,5.2 32,4.6
		31.8,6.7 34,6.5 33.5,8.6 35.7,8.6 34.9,10.6 37,11 35.9,12.9 38.1,13.5 36.7,15.2 38.7,16.1 37.1,17.7 39,18.8 37.2,20.1
		38.9,21.5 37,22.6 38.4,24.2 36.4,25 37.6,26.8 35.4,27.3 36.4,29.3 34.2,29.4 34.9,31.5 32.7,31.4 33.1,33.5 30.9,33.1 31,35.3
		28.9,34.5 28.7,36.7 26.7,35.7 26.2,37.8 24.4,36.5 23.6,38.6 22,37.1 20.9,39 19.5,37.2 18.1,39 17,37.1 15.5,38.6 14.6,36.5
		12.8,37.8 12.3,35.7 10.3,36.7 10.1,34.5 8,35.3 8.1,33.1 6,33.5 6.3,31.4 4.1,31.5 4.8,29.4 2.6,29.3 3.6,27.3 1.4,26.8 2.6,25
		0.6,24.2 2,22.6 0.1,21.5 1.8,20.1 0,18.8 1.9,17.7 0.3,16.1 2.3,15.2 1,13.5 3.1,12.9 2,11 4.2,10.6 3.3,8.6 5.5,8.6 5,6.5
		7.2,6.7 7,4.6 9.1,5.2 9.2,3 11.2,3.8 11.6,1.7 13.4,2.8 14.1,0.8 15.8,2.2 16.8,0.2 18.3,1.8 	"/>
</g>
<g>
	<path class="st1" d="M26.1,13.6H13.6c-1.1,0-1.9,0.8-1.9,1.9v8.7c0,1,0.9,1.9,1.9,1.9h12.5c1.1,0,1.9-0.8,1.9-1.9v-8.7
		C28,14.4,27.1,13.6,26.1,13.6L26.1,13.6z M26,24.3H13.6c-0.2,0-0.3-0.1-0.3-0.2v-7.5l5.6,4.7c0.1,0.1,0.3,0.2,0.4,0.2l1,0
		c0.2,0,0.3-0.1,0.4-0.2l5.6-4.7v7.5C26.3,24.2,26.2,24.3,26,24.3L26,24.3z M19.8,19.9l-5.5-4.6h11L19.8,19.9z M19.8,19.9"/>
</g>
</svg>
