<?xml version="1.0" encoding="utf-8"?>
<!-- Generator: Adobe Illustrator 22.0.1, SVG Export Plug-In . SVG Version: 6.00 Build 0)  -->
<svg version="1.1" id="Layer_1" xmlns="http://www.w3.org/2000/svg" xmlns:xlink="http://www.w3.org/1999/xlink" x="0px" y="0px"
	 viewBox="0 0 43.9 44.4" style="enable-background:new 0 0 43.9 44.4;" xml:space="preserve">
<style type="text/css">
	.st0{fill:#FFFFFF;}
	.st1{fill:#707383;}
</style>
<g>
	<polygon class="st0" points="21.9,0.3 23.3,2.4 24.9,0.6 26,2.8 27.9,1.2 28.7,3.5 30.8,2.2 31.3,4.7 33.5,3.7 33.6,6.2 36,5.5
		35.8,8 38.2,7.6 37.6,10 40.1,10 39.2,12.3 41.6,12.7 40.4,14.8 42.8,15.5 41.3,17.5 43.5,18.5 41.8,20.2 43.9,21.6 41.9,23
		43.7,24.6 41.6,25.8 43.2,27.7 40.9,28.5 42.3,30.6 39.8,31.1 40.9,33.3 38.4,33.5 39.2,35.9 36.7,35.7 37.2,38.2 34.7,37.7
		34.8,40.1 32.5,39.3 32.2,41.8 30,40.6 29.4,43 27.4,41.6 26.4,43.9 24.7,42.1 23.4,44.3 21.9,42.3 20.3,44.3 19.1,42.1 17.3,43.9
		16.4,41.6 14.3,43 13.7,40.6 11.5,41.8 11.3,39.3 8.9,40.1 9,37.7 6.6,38.2 7,35.7 4.5,35.9 5.3,33.5 2.8,33.3 3.9,31.1 1.5,30.6
		2.8,28.5 0.5,27.7 2.2,25.8 0,24.6 1.9,23 -0.1,21.6 2,20.2 0.2,18.5 2.5,17.5 0.9,15.5 3.3,14.8 2.1,12.7 4.5,12.3 3.6,10 6.1,10
		5.5,7.6 8,8 7.7,5.5 10.1,6.2 10.2,3.7 12.5,4.7 12.9,2.2 15,3.5 15.8,1.2 17.7,2.8 18.8,0.6 20.5,2.4 	"/>
</g>
<g>
	<path class="st1" d="M32.4,23.1v7.8H28v-7.2c0-1.8-0.6-3-2.2-3c-1.2,0-1.9,0.8-2.3,1.6c-0.1,0.3-0.1,0.7-0.1,1.1v7.5h-4.4
		c0,0,0.1-12.1,0-13.4h4.4v1.7c0,0,0,0,0,0h0v0c0.6-0.9,1.6-2.2,4-2.2C30.2,17,32.4,18.9,32.4,23.1L32.4,23.1z M14,10.8
		c-1.5,0-2.5,1-2.5,2.3c0,1.3,1,2.3,2.5,2.3h0c1.6,0,2.5-1,2.5-2.3C16.5,11.8,15.5,10.8,14,10.8L14,10.8z M11.7,30.9h4.4V17.5h-4.4
		V30.9z M11.7,30.9"/>
</g>
</svg>
